<svg xmlns="http://www.w3.org/2000/svg" viewBox="0 0 64 64"><path fill="#e6f3ff" d="M3,29H61v26c0,3.31149-2.68851,6-6,6H9c-3.31149,0-6-2.68851-6-6V29h0Z"/><path fill="#21257c" d="M59 60c-.25586 0-.51172-.09766-.70703-.29297l-8.5-8.5c-.9183-.9248.48322-2.33725 1.41411-1.41401-.00004-.00005 8.49996 8.49995 8.49996 8.49995.63672.59321.14895 1.73794-.70703 1.70703zM5 60c-.85386.02877-1.34582-1.11193-.70698-1.70704-.00005.00001 8.49995-8.49999 8.49995-8.49999.92488-.91825 2.33721.48318 1.41401 1.41411.00005-.00004-8.49995 8.49996-8.49995 8.49996-.19531.19531-.45117.29297-.70703.29297z"/><path fill="#21257c" d="M55,62H9c-3.85986,0-7-3.14062-7-7V29c0-.55273,.44775-1,1-1H61c.55225,0,1,.44727,1,1v26c0,3.85938-3.14014,7-7,7ZM4,30v25c0,2.75684,2.24316,5,5,5H55c2.75684,0,5-2.24316,5-5V30H4Z"/><path fill="#e6f3ff" d="M41,3H16c-2.20917,0-4,1.79083-4,4v26H52V14L41,3Z"/><path fill="#21257c" d="M52,34H12c-.55225,0-1-.44727-1-1V7c0-2.75684,2.24316-5,5-5h25c.26514,0,.51953,.10547,.70703,.29297l11,11c.1875,.1875,.29297,.44141,.29297,.70703v19c0,.55273-.44775,1-1,1Zm-39-2H51V14.41406l-10.41406-10.41406H16c-1.6543,0-3,1.3457-3,3v25Z"/><path fill="#4aa5ff" d="M41 10c0 2.20917 1.79083 4 4 4h7L41 3v7zM7 33h5v-8H7c-5.28792.16328-5.28531 7.83792 0 8z"/><path fill="#21257c" d="M12,34H7c-6.61625-.23443-6.6169-9.76563,.00008-10.00001-.00008,0,4.99992,0,4.99992,0,.55225,0,1,.44727,1,1v8c0,.55273-.44775,1-1,1Zm-5-8c-3.95643,.10422-3.95472,5.89676,.00009,6-.00009,0,3.99991,0,3.99991,0v-6H7Z"/><path fill="#4aa5ff" d="M57,33h-5s0-8,0-8h5c5.28792,.16328,5.28531,7.83792,0,8Z"/><path fill="#21257c" d="M57,34h-5c-.55225,0-1-.44727-1-1v-8c0-.55273,.44775-1,1-1h5c6.61625,.23443,6.6169,9.76563,0,10Zm-4-2h4c1.6543,0,3-1.3457,3-3s-1.3457-3-3-3h-4v6Z"/><path fill="#4aa5ff" d="M32,52c-2.75684,0-5-2.24316-5-5,.235-6.61748,9.766-6.61579,10.00001,.00008,0,2.75675-2.24317,4.99992-5.00001,4.99992Zm0-8c-3.95588,.10369-3.95508,5.89689,.00009,6,3.95579-.10369,3.95499-5.89689-.00009-6Z"/><path fill="#4aa5ff" d="M32,57c-8.98534,.04492-13.4212-11.20735-6.82599-17.30181,6.4013-6.05067,16.8912-1.24767,16.82591,7.61935,.00008-.00016,.00008,3.18246,.00008,3.18246-.14809,4.6247-6.85237,4.62532-7-.00008,0,.00008,0-7.49992,0-7.49992,.02178-1.31286,1.97777-1.31576,2,.00004,0-.00004,0,7.49996,0,7.49996,.03253,1.9686,2.96609,1.97259,3-.00007,0,.00007,0-3.18255,0-3.18255,.05557-7.13575-8.31756-11.01844-13.46002-6.15905-5.27588,4.87734-1.7298,13.87714,5.46016,13.84161,1.3139,.0187,1.31344,1.98046-.00014,2.00006Z"/><rect width="24" height="4" x="20" y="27" fill="#4aa5ff" rx="1" ry="1"/><path fill="#4aa5ff" d="M26,11h12c1.31077-.02085,1.31733-1.97781-.00005-2,.00005,0-11.99995,0-11.99995,0-1.31077,.02085-1.31733,1.97781,0,2Z"/><rect width="24" height="4" x="20" y="14" fill="#4aa5ff" rx="1" ry="1"/><rect width="24" height="3" x="20" y="21" fill="#4aa5ff" rx="1" ry="1"/><path fill="#21257c" d="M52,15h-7c-2.75684,0-5-2.24316-5-5V3c-.02715-.86233,1.11547-1.34153,1.70705-.70699-.00002-.00005,10.99998,10.99995,10.99998,10.99995,.62975,.58926,.15832,1.73715-.70703,1.70703Zm-10-9.58594v4.58594c0,1.6543,1.3457,3,3,3h4.58594l-7.58594-7.58594Z"/></svg>