<?xml version="1.0" encoding="utf-8"?>
<!-- Svg Vector Icons : http://www.onlinewebfonts.com/icon -->
<!DOCTYPE svg PUBLIC "-//W3C//DTD SVG 1.1//EN" "http://www.w3.org/Graphics/SVG/1.1/DTD/svg11.dtd">
<svg version="1.1" xmlns="http://www.w3.org/2000/svg" xmlns:xlink="http://www.w3.org/1999/xlink" x="0px" y="0px" viewBox="0 0 256 256" enable-background="new 0 0 256 256" xml:space="preserve">
<metadata> Svg Vector Icons : http://www.onlinewebfonts.com/icon </metadata>
<g><g><g><path fill="#000000" d="M76.5,11.3c-8.2,2.8-14.3,9.3-16.4,17.4c-0.8,2.9-0.9,14.4-0.9,99.3c0,105-0.2,99.4,3.2,105.1c3.4,5.8,8.4,9.8,14.8,11.8c3.2,1,5.9,1.1,50.8,1.1c44.9,0,47.6-0.1,50.8-1.1c6.3-2,11.4-6,14.8-11.8c3.4-5.8,3.2-0.2,3.2-105.1c0-84.9-0.1-96.4-0.9-99.3c-1.8-6.9-6.8-13-13.6-16.4l-4.2-2.1l-48.9-0.1l-49-0.2L76.5,11.3z M181.5,46.5l1.9,2.1v79.4v79.3l-1.2,1.6c-2.5,3.2-0.7,3.1-54.1,3.1s-51.6,0.1-54.1-3.1l-1.2-1.6v-79.3V48.7l1.5-1.8c0.8-1,2-2,2.6-2.2c0.7-0.3,24-0.4,52-0.4l50.8,0.1L181.5,46.5z M132.2,219.7c5.8,2.7,8,8.6,5.4,14.4c-3.6,7.8-15.2,7.9-19.1,0.2c-1.2-2.4-1.5-6.3-0.5-8.8c1.3-3.6,6.1-6.9,10-6.9C129.1,218.6,131,219.1,132.2,219.7z"/><path fill="#000000" d="M129.1,93.7c0,0.6-0.2,1.9-0.3,3l-0.3,2l3.8,1c14,3.5,26.5,15.8,29.4,28.9c0.4,1.7,0.7,3.1,0.8,3.2c0.1,0.1,1.4-0.2,3-0.5c1.9-0.4,2.9-0.9,2.9-1.5c0-1.9-3.5-11.2-5.7-14.9c-3.1-5.4-11.1-13.3-16.7-16.4c-4.2-2.3-10.7-4.8-14.7-5.4C129.5,92.8,129.1,92.9,129.1,93.7z"/><path fill="#000000" d="M98.6,101.3c-1.7,1-9.2,8.4-10.1,10.1c-1.1,2-1,8.1,0.1,12.4c2,7.9,8.6,19.1,16.6,28c10.6,11.8,27.1,21.3,38.1,22c4,0.2,4.8,0.1,6.8-1.1c1.2-0.7,4.1-3.2,6.3-5.6c3.7-3.9,4-4.5,4-6.7c0-2.3-0.2-2.6-6.6-8.9c-6.4-6.4-6.7-6.6-9-6.6c-2.2,0-2.7,0.3-6.8,4.3l-4.4,4.2l-2.7-1.3c-6.3-3.2-15-11.2-19.7-18.4c-3.6-5.4-3.5-5.5,1-10.2c4-4.1,5-6,4.3-8.3c-0.5-1.6-11.1-12.5-13.3-13.6C101.5,100.4,100.1,100.4,98.6,101.3z"/><path fill="#000000" d="M128.3,111.1c-0.2,1.2-0.4,2.5-0.5,3c-0.2,0.7,0.7,1.2,3.1,1.9c6.5,1.9,12.7,8.1,14.5,14.5c0.5,2,1,2.5,1.6,2.3c0.5-0.1,1.8-0.4,3-0.6c1.1-0.2,2.1-0.4,2.1-0.6c0-1.2-2.7-7.7-4.1-10c-3.5-5.4-10.3-10.5-15.7-11.7c-0.9-0.2-2.1-0.5-2.6-0.7C128.8,109,128.6,109.4,128.3,111.1z"/></g></g></g>
</svg>