<svg xmlns="http://www.w3.org/2000/svg" enable-background="new 0 0 64 64" viewBox="0 0 64 64"><rect width="5.46" height=".95" x="46.56" y="31.64" fill="#dadde1"/><path fill="#f2f2f2" d="M52.28,13.2v16.43H40.19c-0.52,0-1.01,0.17-1.41,0.48c-0.52,0.42-0.87,1.07-0.87,1.79v27.56H8.71
			c-1.72,0-3.25-0.81-4.23-2.07c-0.73-0.91-1.15-2.05-1.15-3.3V13.2H52.28z"/><path fill="#76bfe9" d="M52.28,5.65v7.55H3.34L14.08,0h33.1c1.39,0,2.64,0.61,3.56,1.61C51.69,2.63,52.28,4.06,52.28,5.65z"/><path fill="#5dafd8" d="M14.08,0L3.34,13.2h7.5c1.66,0,3.32-1.73,3.24-3.52V0z"/><ellipse cx="46.52" cy="6.6" fill="#f2f2f2" rx="1.98" ry="2.19"/><ellipse cx="41.22" cy="6.6" fill="#f2f2f2" rx="1.98" ry="2.19"/><path fill="#f2f2f2" d="M37.9,6.6c0,1.21-0.88,2.19-1.98,2.19s-1.98-0.98-1.98-2.19s0.88-2.19,1.98-2.19S37.9,5.39,37.9,6.6z"/><rect width="9.41" height="2.49" x="28.5" y="35.08" fill="#dadde1"/><rect width="17.41" height="17.41" x="7.22" y="20.16" fill="#91b5ce"/><rect width="19.9" height="2.49" x="28.3" y="20.16" fill="#dadde1"/><path fill="#dadde1" d="M48.21,27.62v2.01h-8.02c-0.52,0-1.01,0.18-1.4,0.48H28.3v-2.49H48.21z"/><rect width="30.69" height="2.49" x="7.22" y="42.54" fill="#dadde1"/><rect width="30.69" height="2.49" x="7.22" y="50" fill="#dadde1"/><path fill="#7c7c7c" d="M50.62,61.44c0,0.74-0.59,1.34-1.33,1.34c-0.73,0-1.34-0.59-1.34-1.34c0-0.73,0.6-1.33,1.34-1.33
				C50.03,60.12,50.62,60.71,50.62,61.44z"/><path fill="#788d9a" d="M58.39,29.63h-18.2c-0.52,0-1.01,0.17-1.41,0.48c-0.52,0.42-0.87,1.07-0.87,1.79v29.81
				c0,1.27,1.02,2.29,2.28,2.29h18.2c1.26,0,2.28-1.02,2.28-2.29V31.9C60.67,30.65,59.65,29.63,58.39,29.63z M46.56,31.64h5.46v0.95
				h-5.46V31.64z M49.29,62.78c-0.73,0-1.34-0.59-1.34-1.34c0-0.73,0.61-1.32,1.34-1.32c0.74,0,1.33,0.59,1.33,1.32
				C50.62,62.19,50.03,62.78,49.29,62.78z M57.71,58.9H40.88V34.24h16.83V58.9z"/><rect width="5.46" height=".95" x="46.56" y="31.64" fill="#7c7c7c"/><rect width="5.46" height=".95" x="46.56" y="31.64" fill="#dadde1"/><rect width="16.83" height="24.66" x="40.88" y="34.24" fill="#f2f2f2"/><path fill="#dadde1" d="M50.62,61.44c0,0.74-0.59,1.34-1.33,1.34c-0.73,0-1.34-0.59-1.34-1.34c0-0.73,0.6-1.33,1.34-1.33
				C50.03,60.12,50.62,60.71,50.62,61.44z"/><g><rect width="13.24" height="5.9" x="42.67" y="37.06" fill="#f1b974"/><rect width="5.95" height="2.48" x="42.67" y="45.01" fill="#dadde1"/><rect width="5.95" height="2.48" x="49.96" y="45.01" fill="#dadde1"/><rect width="5.95" height="2.48" x="42.67" y="49.55" fill="#dadde1"/><rect width="5.95" height="2.48" x="49.96" y="49.55" fill="#dadde1"/><rect width="5.95" height="2.48" x="42.67" y="54.08" fill="#dadde1"/><rect width="5.95" height="2.48" x="49.96" y="54.08" fill="#dadde1"/></g><path d="M60.67,31.9v29.81c0,1.27-1.02,2.29-2.28,2.29h-18.2c-1.26,0-2.28-1.02-2.28-2.29v-2.25H8.71
		c-1.72,0-3.25-0.81-4.23-2.07l4.06-4.9L10.6,50l4.13-4.97l2.06-2.49l4.12-4.97l3.72-4.48l3.67-4.43l0.86-1.04l4.13-4.97l2.06-2.49
		l5.77-6.96l4.11-4.95l2.67-3.22l2.84-3.42c0.95,1.02,1.54,2.45,1.54,4.04v23.98h6.11C59.65,29.63,60.67,30.65,60.67,31.9z" opacity=".1"/></svg>